<svg width="25.158844" height="25.165283" viewBox="0 0 25.1588 25.1653" fill="none" xmlns="http://www.w3.org/2000/svg" xmlns:xlink="http://www.w3.org/1999/xlink">
	<desc>
			Created with Pixso.
	</desc>
	<defs/>
	<path id="Line 1" d="M0.473755 2.57324L0.44548 2.57324C-0.148499 1.97925 -0.148499 1.0459 0.44548 0.451904C1.03944 -0.142029 1.97282 -0.142029 2.56679 0.451904L2.56679 0.480225L0.473755 2.57324ZM24.6851 22.5985L24.7134 22.5985C25.3073 23.1924 25.3073 24.1259 24.7134 24.7198C24.1194 25.3138 23.186 25.3138 22.5921 24.7198L22.5921 24.6915L24.6851 22.5985Z" fill="#D9D9D9" fill-opacity="0.600000" fill-rule="nonzero"/>
	<path id="Line 1" d="M1.50613 1.51257L23.6527 23.6592" stroke="#598BE0" stroke-opacity="1.000000" stroke-width="3.000000" stroke-linecap="round"/>
	<path id="Line 2" d="M2.56679 24.6851L2.56679 24.7134C1.97282 25.3073 1.03944 25.3073 0.44548 24.7134C-0.148499 24.1194 -0.148499 23.186 0.44548 22.592L0.473755 22.592L2.56679 24.6851ZM22.5921 0.473755L22.5921 0.445496C23.186 -0.148499 24.1194 -0.148499 24.7134 0.445435C25.3073 1.03943 25.3073 1.97284 24.7134 2.56677L24.6851 2.56677L22.5921 0.473755Z" fill="#D9D9D9" fill-opacity="0.600000" fill-rule="nonzero"/>
	<path id="Line 2" d="M1.50613 23.6527L23.6527 1.5061" stroke="#598BE0" stroke-opacity="1.000000" stroke-width="3.000000" stroke-linecap="round"/>
</svg>
