<svg width="25.012268" height="32.006165" viewBox="0 0 25.0123 32.0062" fill="none" xmlns="http://www.w3.org/2000/svg" xmlns:xlink="http://www.w3.org/1999/xlink">
	<desc>
			Created with Pixso.
	</desc>
	<defs/>
	<path id="Line 1" d="M12.0263 1.46906L12.007 1.44836C12.036 0.608887 12.7183 -0.0280151 13.5578 0.000976562C14.3973 0.0299072 15.0342 0.71228 15.0052 1.55176L14.9846 1.57104L12.0263 1.46906ZM13.9859 30.5311L14.0052 30.5518C13.9763 31.3912 13.2939 32.0281 12.4544 31.9991C11.6149 31.9702 10.9781 31.2878 11.007 30.4484L11.0277 30.4291L13.9859 30.5311Z" fill="#D9D9D9" fill-opacity="0.600000" fill-rule="nonzero"/>
	<path id="Line 1" d="M13.5061 1.50006L12.5061 30.5001" stroke="#598BE0" stroke-opacity="1.000000" stroke-width="3.000000" stroke-linecap="round"/>
	<path id="Line 2" d="M13.5668 31.5324L13.5668 31.5607C12.9728 32.1547 12.0394 32.1547 11.4455 31.5607C10.8515 30.9667 10.8515 30.0334 11.4455 29.4394L11.4738 29.4394L13.5668 31.5324ZM22.4455 18.4677L22.4455 18.4394C23.0394 17.8455 23.9728 17.8455 24.5668 18.4394C25.1608 19.0334 25.1608 19.9667 24.5668 20.5607L24.5385 20.5607L22.4455 18.4677Z" fill="#D9D9D9" fill-opacity="0.600000" fill-rule="nonzero"/>
	<path id="Line 2" d="M12.5061 30.5001L23.5061 19.5001" stroke="#598BE0" stroke-opacity="1.000000" stroke-width="3.000000" stroke-linecap="round"/>
	<path id="Line 2" d="M0.473755 20.5607L0.44548 20.5607C-0.148499 19.9667 -0.148499 19.0334 0.44548 18.4394C1.03944 17.8455 1.97282 17.8455 2.56679 18.4394L2.56679 18.4677L0.473755 20.5607ZM13.5385 29.4394L13.5668 29.4394C14.1608 30.0334 14.1608 30.9667 13.5668 31.5607C12.9728 32.1547 12.0394 32.1547 11.4455 31.5607L11.4455 31.5324L13.5385 29.4394Z" fill="#D9D9D9" fill-opacity="0.600000" fill-rule="nonzero"/>
	<path id="Line 2" d="M1.50613 19.5001L12.5061 30.5001" stroke="#598BE0" stroke-opacity="1.000000" stroke-width="3.000000" stroke-linecap="round"/>
</svg>
